M48
; DRILL file {KiCad 9.0.0} date 2025-03-15T02:30:35-0600
; FORMAT={-:-/ absolute / metric / decimal}
; #@! TF.CreationDate,2025-03-15T02:30:35-06:00
; #@! TF.GenerationSoftware,Kicad,Pcbnew,9.0.0
; #@! TF.FileFunction,Plated,1,2,PTH
FMAT,2
METRIC
; #@! TA.AperFunction,Plated,PTH,ViaDrill
T1C0.200
; #@! TA.AperFunction,Plated,PTH,ComponentDrill
T2C0.200
; #@! TA.AperFunction,Plated,PTH,ViaDrill
T3C0.300
; #@! TA.AperFunction,Plated,PTH,ComponentDrill
T4C0.600
; #@! TA.AperFunction,Plated,PTH,ComponentDrill
T5C1.000
; #@! TA.AperFunction,Plated,PTH,ComponentDrill
T6C1.190
; #@! TA.AperFunction,Plated,PTH,ComponentDrill
T7C6.000
%
G90
G05
T1
X80.95Y-80.5
X87.6Y-107.1
X97.0Y-134.7
X97.4Y-93.1
X97.5Y-108.7
X97.7Y-119.4
X97.8Y-137.2
X97.8Y-144.47
X98.4Y-111.0
X102.375Y-79.975
X103.8Y-144.5
X104.4Y-79.9
X105.1Y-94.7
X105.4Y-67.2
X105.9Y-108.1
X106.2Y-82.5
X106.4Y-90.6
X106.4Y-94.7
X106.4Y-105.275
X106.407Y-91.657
X106.901Y-93.325
X107.375Y-118.525
X107.5Y-76.75
X107.5Y-78.0
X107.6Y-63.9
X107.7Y-128.9
X107.7Y-130.5
X107.85Y-79.318
X108.2Y-107.9
X108.4Y-78.2
X108.4Y-79.925
X108.4Y-83.0
X108.4Y-128.368
X108.4Y-130.5
X109.0Y-78.2
X109.0Y-79.45
X109.0Y-85.5
X109.1Y-104.7
X109.206Y-105.906
X109.35Y-103.95
X109.783Y-105.74
X110.35Y-92.55
X110.5Y-79.025
X111.527Y-64.748
X111.896Y-65.9
X112.575Y-65.275
X112.75Y-63.711
X113.9Y-90.6
X114.25Y-105.4
X114.35Y-73.75
X114.4Y-80.1
X114.754Y-103.627
X114.8Y-113.0
X114.965Y-101.885
X114.97Y-102.68
X114.995Y-101.055
X115.0Y-90.1
X115.0Y-92.2
X115.1Y-90.8
X115.2Y-91.425
X115.225Y-122.625
X115.237Y-124.462
X115.3Y-93.6
X115.3Y-128.85
X115.35Y-94.4
X115.4Y-83.6
X115.499Y-96.209
X115.5Y-72.6
X115.725Y-68.425
X116.154Y-67.946
X116.2Y-65.6
X116.2Y-67.1
X116.375Y-74.2
X116.9Y-76.1
X117.375Y-94.15
X117.387Y-98.087
X117.4Y-75.1
X117.438Y-90.837
X117.9Y-109.8
X117.925Y-96.05
X118.0Y-116.7
X118.4Y-88.7
X120.5Y-70.9
X120.801Y-82.5
X120.9Y-115.5
X121.07Y-94.1
X121.25Y-83.0
X121.682Y-117.382
X122.3Y-99.8
X122.5Y-95.3
X122.6Y-105.1
X122.85Y-98.45
X123.2Y-117.4
X123.5Y-116.2
X124.5Y-95.7
X125.1Y-81.5
X125.3Y-94.8
X126.0Y-99.25
X126.0Y-103.425
X126.325Y-102.25
X127.0Y-94.3
X127.2Y-95.3
X127.245Y-106.845
X127.375Y-81.25
X127.375Y-84.925
X127.5Y-89.6
X127.8Y-106.3
X128.0Y-81.25
X128.0Y-89.2
X128.0Y-84.6
X128.1Y-95.3
X128.1Y-97.7
X128.675Y-84.625
X128.7Y-81.25
X128.7Y-112.5
X128.949Y-107.899
X129.125Y-78.625
X129.2Y-83.5
X129.2Y-115.7
X130.0Y-78.2
X130.0Y-81.8
X130.0Y-83.5
X130.1Y-118.0
X130.4Y-114.5
X130.9Y-94.8
X130.95Y-116.575
X130.981Y-104.25
X131.17Y-97.45
X131.2Y-84.5
X131.54Y-104.03
X131.6Y-62.6
X131.6Y-106.2
X131.8Y-98.1
X132.0Y-76.2
X132.0Y-85.7
X132.05Y-117.125
X132.1Y-105.72
X132.25Y-71.25
X132.3Y-68.4
X132.3Y-110.8
X132.5Y-72.25
X132.57Y-104.54
X132.6Y-81.5
X132.6Y-105.2
X132.625Y-102.25
X132.625Y-103.5
X132.75Y-73.75
X133.2Y-98.4
X133.4Y-77.0
X133.525Y-117.125
X134.5Y-83.5
X134.6Y-63.3
X134.8Y-78.0
X135.1Y-114.45
X135.2Y-84.1
X135.9Y-95.05
X136.175Y-103.425
X136.19Y-102.19
X137.275Y-92.15
X137.7Y-102.991
X137.75Y-66.0
X137.825Y-92.675
X138.2Y-93.8
X138.25Y-85.0
X138.3Y-97.6
X138.3Y-99.7
X138.5Y-88.2
X139.287Y-84.787
X139.375Y-92.125
X140.06Y-93.4
X140.375Y-95.15
X140.5Y-86.0
X140.565Y-110.64
X141.0Y-90.6
X141.1Y-114.8
X141.28Y-94.04
X141.55Y-104.55
X141.9Y-97.0
X142.0Y-98.6
X142.1Y-84.75
X142.25Y-86.75
X142.4Y-100.075
X142.9Y-118.1
X143.5Y-102.25
X143.5Y-103.5
X144.4Y-96.2
X145.2Y-95.7
X145.25Y-86.75
X145.75Y-89.0
X146.0Y-94.0
X146.475Y-101.1
X146.5Y-74.75
X147.025Y-73.875
X147.068Y-95.232
X147.3Y-106.3
X147.7Y-98.85
X147.725Y-106.725
X148.4Y-98.85
X148.5Y-114.8
X149.2Y-93.5
X149.5Y-86.5
X149.818Y-97.982
X150.3Y-106.1
X150.3Y-109.3
X150.45Y-89.525
X150.5Y-94.1
X150.9Y-98.95
X151.01Y-76.38
X151.999Y-116.624
X153.05Y-83.58
X153.1Y-98.95
X153.3Y-76.35
X153.6Y-114.8
X153.7Y-83.5
X153.711Y-116.512
X154.0Y-86.5
X154.0Y-91.75
X154.4Y-114.8
X154.72Y-116.56
X155.1Y-75.1
X155.106Y-116.0
X155.3Y-139.8
X155.5Y-101.35
X155.675Y-99.2
X155.725Y-100.25
X155.775Y-119.725
X156.19Y-131.63
X156.25Y-81.982
X156.6Y-88.875
X156.7Y-105.6
X157.0Y-83.5
X157.7Y-80.25
X157.9Y-88.9
X158.0Y-83.6
X158.4Y-79.8
X158.7Y-104.5
X159.1Y-95.0
X159.2Y-82.2
X159.3Y-104.95
X159.5Y-83.3
X160.7Y-99.1
X160.9Y-90.9
X161.5Y-106.4
X161.6Y-85.125
X161.85Y-105.05
X162.0Y-97.2
X162.0Y-102.3
X162.52Y-106.83
X162.525Y-94.625
X162.9Y-92.2
X164.525Y-117.55
X164.675Y-114.925
X164.819Y-86.681
X164.878Y-110.1
X164.925Y-106.8
X165.1Y-104.7
X165.25Y-92.2
X165.275Y-91.6
X165.291Y-110.766
X165.6Y-105.1
X165.6Y-114.9
X165.651Y-106.651
X165.9Y-91.65
X165.9Y-97.8
X166.025Y-116.05
X166.1Y-117.6
X166.2Y-88.78
X166.2Y-100.7
X166.2Y-104.6
X166.267Y-106.45
X166.6Y-91.5
X166.65Y-115.575
X166.775Y-105.975
X166.854Y-100.759
X167.15Y-97.9
X167.16Y-88.16
X167.2Y-91.4
X167.3Y-96.0
X167.3Y-115.3
X167.7Y-91.775
X168.075Y-115.25
X168.106Y-111.163
X168.3Y-95.4
X168.75Y-111.075
X169.5Y-117.6
X169.55Y-109.825
X170.125Y-109.325
X170.125Y-110.35
X170.15Y-99.8
X170.153Y-104.853
X170.2Y-101.4
X170.2Y-102.6
X170.275Y-106.325
X171.5Y-98.5
X171.6Y-107.225
X171.9Y-97.2
X172.15Y-101.5
X173.56Y-115.4
X174.9Y-62.9
X175.4Y-107.048
X175.478Y-103.0
X175.85Y-105.232
X175.85Y-105.9
X176.125Y-101.4
X176.3Y-83.2
X176.35Y-104.732
X176.7Y-99.8
X176.9Y-80.0
X177.075Y-102.025
X177.35Y-102.6
X177.4Y-98.6
X177.436Y-104.643
X177.525Y-101.6
X177.7Y-109.975
X178.1Y-75.3
X178.3Y-114.7
X178.775Y-111.075
X179.7Y-115.1
X180.269Y-117.231
X181.0Y-102.0
X181.2Y-105.1
X181.5Y-99.5
X181.5Y-129.1
X182.575Y-97.05
X183.25Y-94.175
X183.7Y-109.4
X184.1Y-59.6
X184.4Y-114.5
X184.7Y-107.35
X184.95Y-91.55
X185.1Y-59.9
X185.6Y-59.2
X185.8Y-99.79
X186.5Y-100.45
X186.7Y-98.0
X187.075Y-106.225
X187.175Y-99.175
X187.2Y-102.525
X187.3Y-94.7
X187.3Y-105.625
X187.5Y-98.5
X187.625Y-105.1
X187.7Y-101.473
X189.0Y-107.8
X190.425Y-98.0
X190.5Y-101.7
X190.753Y-108.055
X190.85Y-96.975
X191.575Y-96.975
X192.25Y-65.75
X192.25Y-88.25
X192.4Y-111.5
X192.512Y-107.912
X192.8Y-92.325
X192.8Y-94.2
X192.875Y-91.55
X193.025Y-104.575
X193.25Y-80.25
X193.25Y-94.775
X193.3Y-93.675
X193.325Y-129.075
X193.4Y-106.9
X193.9Y-112.0
X194.0Y-132.6
X194.1Y-93.1
X194.3Y-117.0
X196.0Y-91.2
X196.025Y-92.2
X196.85Y-92.7
X196.9Y-91.7
X198.4Y-79.5
X198.8Y-119.2
X200.0Y-75.7
X200.0Y-89.4
X200.0Y-93.35
X200.5Y-89.825
X200.75Y-75.9
X200.9Y-93.249
X201.3Y-123.3
X201.9Y-92.0
X201.932Y-67.132
X201.975Y-123.675
X202.5Y-124.213
X203.0Y-61.0
X203.5Y-61.775
X211.0Y-92.0
T2
X124.6Y-69.09
X124.6Y-70.49
X125.3Y-68.39
X125.3Y-69.79
X125.3Y-71.19
X126.0Y-69.09
X126.0Y-70.49
X126.7Y-68.39
X126.7Y-69.79
X126.7Y-71.19
X127.4Y-69.09
X127.4Y-70.49
T3
X106.8Y-130.7
X108.374Y-105.074
X109.696Y-79.2
X109.7Y-77.877
X111.2Y-104.501
X114.8Y-108.3
X115.6Y-143.1
X116.0Y-85.3
X117.5Y-57.0
X118.2Y-118.7
X118.3Y-135.2
X119.1Y-115.6
X124.8Y-59.0
X124.9Y-74.4
X141.5Y-115.4
X144.874Y-115.4
X156.1Y-109.9
X160.5Y-70.5
X168.25Y-64.25
X168.3Y-113.3
X168.5Y-115.999
X170.2Y-136.0
X171.5Y-115.6
X171.5Y-117.4
X173.45Y-117.35
X177.3Y-114.6
X177.35Y-117.35
X180.962Y-110.739
X182.7Y-115.6
X182.7Y-117.8
X192.9Y-64.4
X194.0Y-115.6
X199.4Y-66.9
X200.8Y-64.4
X201.7Y-139.0
X203.3Y-87.8
X208.25Y-61.78
X208.25Y-63.5
X208.6Y-76.3
X208.8Y-89.1
X208.8Y-115.6
X209.0Y-102.1
X209.1Y-128.5
X209.2Y-141.6
X209.3Y-97.4
X209.4Y-110.3
X209.5Y-123.3
X209.8Y-136.7
X217.75Y-61.78
X217.75Y-63.5
X218.0Y-76.0
X218.1Y-102.0
X218.1Y-115.4
X218.2Y-128.5
X218.2Y-141.4
X218.5Y-89.1
X218.5Y-110.3
X218.6Y-123.16
X218.7Y-97.1
X218.7Y-136.3
T5
X175.5Y-70.5
X180.5Y-70.5
T6
X84.238Y-56.21
X84.238Y-58.75
X84.238Y-61.29
X84.238Y-69.252
X84.238Y-71.792
X84.238Y-74.332
X84.238Y-82.293
X84.238Y-84.833
X84.238Y-87.373
X84.238Y-95.335
X84.238Y-97.875
X84.238Y-100.415
X84.238Y-108.377
X84.238Y-110.917
X84.238Y-113.457
X84.238Y-121.418
X84.238Y-123.958
X84.238Y-126.498
X84.27Y-134.46
X84.27Y-137.0
X84.27Y-139.54
X93.238Y-57.48
X93.238Y-60.02
X93.238Y-70.522
X93.238Y-73.062
X93.238Y-83.563
X93.238Y-86.103
X93.238Y-96.605
X93.238Y-99.145
X93.238Y-109.647
X93.238Y-112.187
X93.238Y-122.688
X93.238Y-125.228
X93.27Y-135.73
X93.27Y-138.27
X102.238Y-57.48
X102.238Y-60.02
X102.238Y-70.522
X102.238Y-73.062
X102.238Y-83.563
X102.238Y-86.103
X102.238Y-96.605
X102.238Y-99.145
X102.238Y-109.647
X102.238Y-112.187
X102.238Y-122.688
X102.238Y-125.228
X102.27Y-135.73
X102.27Y-138.27
X111.238Y-54.94
X111.238Y-57.48
X111.238Y-60.02
X111.238Y-62.56
X111.238Y-67.982
X111.238Y-70.522
X111.238Y-73.062
X111.238Y-75.602
X111.238Y-81.023
X111.238Y-83.563
X111.238Y-86.103
X111.238Y-88.643
X111.238Y-94.065
X111.238Y-96.605
X111.238Y-99.145
X111.238Y-101.685
X111.238Y-107.107
X111.238Y-109.647
X111.238Y-112.187
X111.238Y-114.727
X111.238Y-120.148
X111.238Y-122.688
X111.238Y-125.228
X111.238Y-127.768
X111.27Y-133.19
X111.27Y-135.73
X111.27Y-138.27
X111.27Y-140.81
X118.381Y-112.25
X119.651Y-139.25
X120.921Y-112.25
X120.921Y-121.25
X120.921Y-130.25
X122.191Y-139.25
X123.461Y-112.25
X123.461Y-121.25
X123.461Y-130.25
X124.731Y-139.25
X126.001Y-112.25
X131.201Y-112.23
X132.471Y-139.23
X133.741Y-112.23
X133.741Y-121.23
X133.741Y-130.23
X135.011Y-139.23
X136.281Y-112.23
X136.281Y-121.23
X136.281Y-130.23
X137.551Y-139.23
X138.821Y-112.23
X140.96Y-59.02
X143.5Y-59.02
X143.88Y-112.25
X145.29Y-139.25
X146.04Y-59.02
X146.42Y-112.25
X146.56Y-121.25
X146.56Y-130.25
X147.831Y-139.25
X148.96Y-112.25
X149.1Y-121.25
X149.1Y-130.25
X150.37Y-139.25
X151.5Y-112.25
X156.75Y-112.25
X158.11Y-139.25
X159.29Y-112.25
X159.38Y-121.237
X159.38Y-130.243
X160.65Y-139.25
X161.83Y-112.25
X161.92Y-121.237
X161.92Y-130.243
X163.19Y-139.25
X164.37Y-112.25
X169.69Y-112.23
X170.93Y-139.23
X172.2Y-121.23
X172.2Y-130.23
X172.23Y-112.23
X173.47Y-139.23
X174.74Y-121.23
X174.74Y-130.23
X174.77Y-112.23
X176.01Y-139.23
X177.31Y-112.23
X182.44Y-112.23
X183.75Y-139.25
X184.98Y-112.23
X185.02Y-121.25
X185.02Y-130.23
X186.29Y-139.25
X187.52Y-112.23
X187.56Y-121.25
X187.56Y-130.23
X188.83Y-139.25
X190.06Y-112.23
X196.48Y-55.0
X196.48Y-57.54
X196.48Y-60.08
X196.48Y-62.62
X196.525Y-68.022
X196.525Y-70.562
X196.525Y-73.102
X196.525Y-75.642
X196.57Y-81.043
X196.57Y-83.583
X196.57Y-86.123
X196.57Y-88.663
X196.615Y-94.065
X196.615Y-96.605
X196.615Y-99.145
X196.615Y-101.685
X196.66Y-133.13
X196.66Y-135.67
X196.66Y-138.21
X196.66Y-140.75
X196.705Y-107.087
X196.705Y-109.627
X196.705Y-112.167
X196.705Y-114.707
X196.75Y-120.108
X196.75Y-122.648
X196.75Y-125.188
X196.75Y-127.728
X205.73Y-135.73
X205.73Y-138.27
X205.75Y-57.46
X205.75Y-60.0
X205.75Y-70.5
X205.75Y-73.04
X205.75Y-83.5
X205.75Y-86.04
X205.75Y-96.46
X205.75Y-99.0
X205.75Y-109.46
X205.75Y-112.0
X205.75Y-122.71
X205.75Y-125.25
X215.0Y-57.46
X215.0Y-60.0
X215.0Y-70.46
X215.0Y-73.0
X215.0Y-83.46
X215.0Y-86.0
X215.0Y-96.46
X215.0Y-99.0
X215.0Y-109.46
X215.0Y-112.0
X215.0Y-122.73
X215.0Y-125.27
X215.0Y-135.73
X215.0Y-138.27
X224.23Y-95.17
X224.23Y-97.71
X224.23Y-100.25
X224.25Y-56.25
X224.25Y-58.79
X224.25Y-61.33
X224.25Y-69.42
X224.25Y-71.96
X224.25Y-74.5
X224.25Y-82.17
X224.25Y-84.71
X224.25Y-87.25
X224.25Y-108.17
X224.25Y-110.71
X224.25Y-113.25
X224.25Y-121.42
X224.25Y-123.96
X224.25Y-126.5
X224.25Y-134.21
X224.25Y-136.75
X224.25Y-139.29
T7
X157.75Y-58.5
X168.75Y-58.5
T4
G00X180.53Y-56.205
M15
G01X180.53Y-55.605
M16
G05
G00X180.53Y-60.635
M15
G01X180.53Y-59.535
M16
G05
G00X189.17Y-56.205
M15
G01X189.17Y-55.605
M16
G05
G00X189.17Y-60.635
M15
G01X189.17Y-59.535
M16
G05
M30
