%TF.GenerationSoftware,KiCad,Pcbnew,9.0.0*%
%TF.CreationDate,2025-03-15T02:30:36-06:00*%
%TF.ProjectId,ParallelValveController,50617261-6c6c-4656-9c56-616c7665436f,rev?*%
%TF.SameCoordinates,Original*%
%TF.FileFunction,Soldermask,Top*%
%TF.FilePolarity,Negative*%
%FSLAX46Y46*%
G04 Gerber Fmt 4.6, Leading zero omitted, Abs format (unit mm)*
G04 Created by KiCad (PCBNEW 9.0.0) date 2025-03-15 02:30:36*
%MOMM*%
%LPD*%
G01*
G04 APERTURE LIST*
G04 Aperture macros list*
%AMRoundRect*
0 Rectangle with rounded corners*
0 $1 Rounding radius*
0 $2 $3 $4 $5 $6 $7 $8 $9 X,Y pos of 4 corners*
0 Add a 4 corners polygon primitive as box body*
4,1,4,$2,$3,$4,$5,$6,$7,$8,$9,$2,$3,0*
0 Add four circle primitives for the rounded corners*
1,1,$1+$1,$2,$3*
1,1,$1+$1,$4,$5*
1,1,$1+$1,$6,$7*
1,1,$1+$1,$8,$9*
0 Add four rect primitives between the rounded corners*
20,1,$1+$1,$2,$3,$4,$5,0*
20,1,$1+$1,$4,$5,$6,$7,0*
20,1,$1+$1,$6,$7,$8,$9,0*
20,1,$1+$1,$8,$9,$2,$3,0*%
G04 Aperture macros list end*
%ADD10RoundRect,0.112500X0.387500X-0.262500X0.387500X0.262500X-0.387500X0.262500X-0.387500X-0.262500X0*%
%ADD11RoundRect,0.250000X0.620000X0.845000X-0.620000X0.845000X-0.620000X-0.845000X0.620000X-0.845000X0*%
%ADD12O,1.740000X2.190000*%
%ADD13RoundRect,0.250000X-0.845000X0.620000X-0.845000X-0.620000X0.845000X-0.620000X0.845000X0.620000X0*%
%ADD14O,2.190000X1.740000*%
%ADD15RoundRect,0.150000X-0.850000X-0.150000X0.850000X-0.150000X0.850000X0.150000X-0.850000X0.150000X0*%
%ADD16RoundRect,0.250000X-0.450000X0.262500X-0.450000X-0.262500X0.450000X-0.262500X0.450000X0.262500X0*%
%ADD17RoundRect,0.112500X-0.262500X-0.387500X0.262500X-0.387500X0.262500X0.387500X-0.262500X0.387500X0*%
%ADD18RoundRect,0.225000X-0.575000X-0.525000X0.575000X-0.525000X0.575000X0.525000X-0.575000X0.525000X0*%
%ADD19C,9.000000*%
%ADD20RoundRect,0.250000X0.845000X-0.620000X0.845000X0.620000X-0.845000X0.620000X-0.845000X-0.620000X0*%
%ADD21RoundRect,0.250000X0.650000X-1.000000X0.650000X1.000000X-0.650000X1.000000X-0.650000X-1.000000X0*%
%ADD22RoundRect,0.250000X0.250000X0.475000X-0.250000X0.475000X-0.250000X-0.475000X0.250000X-0.475000X0*%
%ADD23RoundRect,0.250000X-0.262500X-0.450000X0.262500X-0.450000X0.262500X0.450000X-0.262500X0.450000X0*%
%ADD24RoundRect,0.250000X-0.650000X1.000000X-0.650000X-1.000000X0.650000X-1.000000X0.650000X1.000000X0*%
%ADD25RoundRect,0.250000X-0.250000X-0.475000X0.250000X-0.475000X0.250000X0.475000X-0.250000X0.475000X0*%
%ADD26RoundRect,0.250000X-0.300000X2.050000X-0.300000X-2.050000X0.300000X-2.050000X0.300000X2.050000X0*%
%ADD27RoundRect,0.250002X-5.149998X4.449998X-5.149998X-4.449998X5.149998X-4.449998X5.149998X4.449998X0*%
%ADD28RoundRect,0.250000X0.475000X-0.250000X0.475000X0.250000X-0.475000X0.250000X-0.475000X-0.250000X0*%
%ADD29RoundRect,0.250000X-0.620000X-0.845000X0.620000X-0.845000X0.620000X0.845000X-0.620000X0.845000X0*%
%ADD30RoundRect,0.250000X0.450000X-0.262500X0.450000X0.262500X-0.450000X0.262500X-0.450000X-0.262500X0*%
%ADD31RoundRect,0.250000X0.262500X0.450000X-0.262500X0.450000X-0.262500X-0.450000X0.262500X-0.450000X0*%
%ADD32RoundRect,0.249999X1.075001X-0.512501X1.075001X0.512501X-1.075001X0.512501X-1.075001X-0.512501X0*%
%ADD33RoundRect,0.150000X-0.150000X0.837500X-0.150000X-0.837500X0.150000X-0.837500X0.150000X0.837500X0*%
%ADD34RoundRect,0.250000X-1.000000X-0.650000X1.000000X-0.650000X1.000000X0.650000X-1.000000X0.650000X0*%
%ADD35RoundRect,0.375000X-0.375000X0.625000X-0.375000X-0.625000X0.375000X-0.625000X0.375000X0.625000X0*%
%ADD36RoundRect,0.500000X-1.400000X0.500000X-1.400000X-0.500000X1.400000X-0.500000X1.400000X0.500000X0*%
%ADD37RoundRect,0.243750X-0.243750X-0.456250X0.243750X-0.456250X0.243750X0.456250X-0.243750X0.456250X0*%
%ADD38R,2.000000X2.000000*%
%ADD39C,2.000000*%
%ADD40RoundRect,0.150000X-0.150000X0.675000X-0.150000X-0.675000X0.150000X-0.675000X0.150000X0.675000X0*%
%ADD41R,1.500000X0.900000*%
%ADD42R,0.900000X1.500000*%
%ADD43C,0.600000*%
%ADD44R,3.900000X3.900000*%
%ADD45C,0.650000*%
%ADD46R,0.600000X1.450000*%
%ADD47R,0.300000X1.450000*%
%ADD48O,1.000000X2.100000*%
%ADD49O,1.000000X1.600000*%
%ADD50RoundRect,0.250000X-0.475000X0.250000X-0.475000X-0.250000X0.475000X-0.250000X0.475000X0.250000X0*%
%ADD51R,2.900000X5.400000*%
%ADD52RoundRect,0.225000X0.225000X0.375000X-0.225000X0.375000X-0.225000X-0.375000X0.225000X-0.375000X0*%
%ADD53RoundRect,0.249999X-1.075001X0.512501X-1.075001X-0.512501X1.075001X-0.512501X1.075001X0.512501X0*%
%ADD54RoundRect,0.250000X1.500000X0.550000X-1.500000X0.550000X-1.500000X-0.550000X1.500000X-0.550000X0*%
G04 APERTURE END LIST*
D10*
%TO.C,Q13*%
X190350000Y-128800000D03*
X192250000Y-129750000D03*
X192250000Y-127850000D03*
%TD*%
D11*
%TO.C,J51*%
X149100500Y-121250000D03*
D12*
X146560500Y-121250000D03*
%TD*%
D13*
%TO.C,J76*%
X196750000Y-120108333D03*
D14*
X196750000Y-122648333D03*
X196750000Y-125188333D03*
X196750000Y-127728333D03*
%TD*%
D15*
%TO.C,U9*%
X163500000Y-97250000D03*
X163500000Y-98520000D03*
X163500000Y-99790000D03*
X163500000Y-101060000D03*
X163500000Y-102330000D03*
X163500000Y-103600000D03*
X163500000Y-104870000D03*
X163500000Y-106140000D03*
X168500000Y-106140000D03*
X168500000Y-104870000D03*
X168500000Y-103600000D03*
X168500000Y-102330000D03*
X168500000Y-101060000D03*
X168500000Y-99790000D03*
X168500000Y-98520000D03*
X168500000Y-97250000D03*
%TD*%
D11*
%TO.C,J69*%
X126000833Y-112250000D03*
D12*
X123460833Y-112250000D03*
X120920833Y-112250000D03*
X118380833Y-112250000D03*
%TD*%
D16*
%TO.C,R15*%
X212750000Y-141837500D03*
X212750000Y-143662500D03*
%TD*%
D13*
%TO.C,J41*%
X215000000Y-57460000D03*
D14*
X215000000Y-60000000D03*
%TD*%
D16*
%TO.C,R36*%
X99850000Y-89787500D03*
X99850000Y-91612500D03*
%TD*%
D17*
%TO.C,Q2*%
X94750000Y-76700000D03*
X93800000Y-78600000D03*
X95700000Y-78600000D03*
%TD*%
D11*
%TO.C,J50*%
X136280666Y-121230000D03*
D12*
X133740666Y-121230000D03*
%TD*%
D11*
%TO.C,J11*%
X150370500Y-139250000D03*
D12*
X147830500Y-139250000D03*
X145290500Y-139250000D03*
%TD*%
D18*
%TO.C,SW2*%
X130131200Y-85940000D03*
X134500000Y-85940000D03*
%TD*%
D11*
%TO.C,J33*%
X174740167Y-130230000D03*
D12*
X172200167Y-130230000D03*
%TD*%
D11*
%TO.C,J12*%
X163190333Y-139250000D03*
D12*
X160650333Y-139250000D03*
X158110333Y-139250000D03*
%TD*%
D19*
%TO.C,J83*%
X157750000Y-58500000D03*
X168750000Y-58500000D03*
%TD*%
D20*
%TO.C,J22*%
X93238375Y-60020000D03*
D14*
X93238375Y-57480000D03*
%TD*%
D13*
%TO.C,J79*%
X196570000Y-81043333D03*
D14*
X196570000Y-83583333D03*
X196570000Y-86123333D03*
X196570000Y-88663333D03*
%TD*%
D13*
%TO.C,J37*%
X215000000Y-109460000D03*
D14*
X215000000Y-112000000D03*
%TD*%
D20*
%TO.C,J62*%
X111238375Y-62560000D03*
D14*
X111238375Y-60020000D03*
X111238375Y-57480000D03*
X111238375Y-54940000D03*
%TD*%
D21*
%TO.C,TVS1*%
X152250000Y-69750000D03*
X152250000Y-65750000D03*
%TD*%
D22*
%TO.C,C6*%
X123400000Y-89940000D03*
X121500000Y-89940000D03*
%TD*%
D16*
%TO.C,R32*%
X203500000Y-77087500D03*
X203500000Y-78912500D03*
%TD*%
%TO.C,R5*%
X91000000Y-103587500D03*
X91000000Y-105412500D03*
%TD*%
%TO.C,R20*%
X212750000Y-76887500D03*
X212750000Y-78712500D03*
%TD*%
D23*
%TO.C,R14*%
X190337500Y-132500000D03*
X192162500Y-132500000D03*
%TD*%
D13*
%TO.C,J59*%
X205750000Y-83500000D03*
D14*
X205750000Y-86040000D03*
%TD*%
D24*
%TO.C,TVS3*%
X140250000Y-65750000D03*
X140250000Y-69750000D03*
%TD*%
D17*
%TO.C,Q17*%
X216500000Y-102550000D03*
X215550000Y-104450000D03*
X217450000Y-104450000D03*
%TD*%
D20*
%TO.C,J68*%
X111270000Y-140810000D03*
D14*
X111270000Y-138270000D03*
X111270000Y-135730000D03*
X111270000Y-133190000D03*
%TD*%
D25*
%TO.C,C2*%
X188500000Y-64000000D03*
X190400000Y-64000000D03*
%TD*%
D26*
%TO.C,U6*%
X169875000Y-68025000D03*
X168175000Y-68025000D03*
X166475000Y-68025000D03*
D27*
X166475000Y-77175000D03*
D26*
X164775000Y-68025000D03*
X163075000Y-68025000D03*
%TD*%
D16*
%TO.C,R6*%
X91000000Y-116425000D03*
X91000000Y-118250000D03*
%TD*%
D13*
%TO.C,J75*%
X196660000Y-133130000D03*
D14*
X196660000Y-135670000D03*
X196660000Y-138210000D03*
X196660000Y-140750000D03*
%TD*%
D28*
%TO.C,C9*%
X149662500Y-96950000D03*
X149662500Y-95050000D03*
%TD*%
D20*
%TO.C,J48*%
X102270000Y-138270000D03*
D14*
X102270000Y-135730000D03*
%TD*%
D13*
%TO.C,J18*%
X224230000Y-95170000D03*
D14*
X224230000Y-97710000D03*
X224230000Y-100250000D03*
%TD*%
D20*
%TO.C,J45*%
X102238375Y-99145000D03*
D14*
X102238375Y-96605000D03*
%TD*%
D29*
%TO.C,J82*%
X140960000Y-59020000D03*
D12*
X143500000Y-59020000D03*
X146040000Y-59020000D03*
%TD*%
D20*
%TO.C,J44*%
X102238375Y-86103333D03*
D14*
X102238375Y-83563333D03*
%TD*%
D17*
%TO.C,Q38*%
X207300000Y-102600000D03*
X206350000Y-104500000D03*
X208250000Y-104500000D03*
%TD*%
D10*
%TO.C,Q25*%
X165600000Y-119750000D03*
X167500000Y-120700000D03*
X167500000Y-118800000D03*
%TD*%
D13*
%TO.C,J58*%
X205750000Y-96460000D03*
D14*
X205750000Y-99000000D03*
%TD*%
D30*
%TO.C,R51*%
X155200000Y-106500000D03*
X155200000Y-104675000D03*
%TD*%
D31*
%TO.C,R24*%
X154325000Y-94500000D03*
X152500000Y-94500000D03*
%TD*%
D10*
%TO.C,Q8*%
X127000000Y-128750000D03*
X128900000Y-129700000D03*
X128900000Y-127800000D03*
%TD*%
D16*
%TO.C,R8*%
X91000000Y-141837500D03*
X91000000Y-143662500D03*
%TD*%
D23*
%TO.C,R13*%
X178750000Y-132500000D03*
X180575000Y-132500000D03*
%TD*%
D20*
%TO.C,J8*%
X84270000Y-139540000D03*
D14*
X84270000Y-137000000D03*
X84270000Y-134460000D03*
%TD*%
D20*
%TO.C,J5*%
X84238375Y-100415000D03*
D14*
X84238375Y-97875000D03*
X84238375Y-95335000D03*
%TD*%
D17*
%TO.C,Q21*%
X103750000Y-63550000D03*
X102800000Y-65450000D03*
X104700000Y-65450000D03*
%TD*%
D20*
%TO.C,J66*%
X111238375Y-114726667D03*
D14*
X111238375Y-112186667D03*
X111238375Y-109646667D03*
X111238375Y-107106667D03*
%TD*%
D23*
%TO.C,R26*%
X143062500Y-79450000D03*
X144887500Y-79450000D03*
%TD*%
D22*
%TO.C,C4*%
X190400000Y-75500000D03*
X188500000Y-75500000D03*
%TD*%
D32*
%TO.C,F2*%
X144000000Y-68925000D03*
X144000000Y-64250000D03*
%TD*%
D13*
%TO.C,J77*%
X196705000Y-107086667D03*
D14*
X196705000Y-109626667D03*
X196705000Y-112166667D03*
X196705000Y-114706667D03*
%TD*%
D16*
%TO.C,R40*%
X100300000Y-116350000D03*
X100300000Y-118175000D03*
%TD*%
D13*
%TO.C,J16*%
X224250000Y-121420000D03*
D14*
X224250000Y-123960000D03*
X224250000Y-126500000D03*
%TD*%
D17*
%TO.C,Q33*%
X103800000Y-129200000D03*
X102850000Y-131100000D03*
X104750000Y-131100000D03*
%TD*%
D13*
%TO.C,J81*%
X196480000Y-55000000D03*
D14*
X196480000Y-57540000D03*
X196480000Y-60080000D03*
X196480000Y-62620000D03*
%TD*%
D15*
%TO.C,U4*%
X129666666Y-97075000D03*
X129666666Y-98345000D03*
X129666666Y-99615000D03*
X129666666Y-100885000D03*
X129666666Y-102155000D03*
X129666666Y-103425000D03*
X129666666Y-104695000D03*
X129666666Y-105965000D03*
X134666666Y-105965000D03*
X134666666Y-104695000D03*
X134666666Y-103425000D03*
X134666666Y-102155000D03*
X134666666Y-100885000D03*
X134666666Y-99615000D03*
X134666666Y-98345000D03*
X134666666Y-97075000D03*
%TD*%
D33*
%TO.C,U7*%
X150810000Y-84287500D03*
X149540000Y-84287500D03*
X148270000Y-84287500D03*
X147000000Y-84287500D03*
X145730000Y-84287500D03*
X144460000Y-84287500D03*
X143190000Y-84287500D03*
X143190000Y-91212500D03*
X144460000Y-91212500D03*
X145730000Y-91212500D03*
X147000000Y-91212500D03*
X148270000Y-91212500D03*
X149540000Y-91212500D03*
X150810000Y-91212500D03*
%TD*%
D30*
%TO.C,R29*%
X149500000Y-60075000D03*
X149500000Y-58250000D03*
%TD*%
D11*
%TO.C,J74*%
X190060000Y-112230000D03*
D12*
X187520000Y-112230000D03*
X184980000Y-112230000D03*
X182440000Y-112230000D03*
%TD*%
D17*
%TO.C,Q32*%
X207400000Y-141850000D03*
X206450000Y-143750000D03*
X208350000Y-143750000D03*
%TD*%
D16*
%TO.C,R49*%
X203500000Y-89925000D03*
X203500000Y-91750000D03*
%TD*%
D13*
%TO.C,J35*%
X215000000Y-135730000D03*
D14*
X215000000Y-138270000D03*
%TD*%
D11*
%TO.C,J54*%
X187560000Y-121250000D03*
D12*
X185020000Y-121250000D03*
%TD*%
D13*
%TO.C,J38*%
X215000000Y-96460000D03*
D14*
X215000000Y-99000000D03*
%TD*%
D16*
%TO.C,R4*%
X90900000Y-89887500D03*
X90900000Y-91712500D03*
%TD*%
D11*
%TO.C,J52*%
X161920333Y-121236667D03*
D12*
X159380333Y-121236667D03*
%TD*%
D17*
%TO.C,Q27*%
X103700000Y-89750000D03*
X102750000Y-91650000D03*
X104650000Y-91650000D03*
%TD*%
D31*
%TO.C,R23*%
X144912500Y-75950000D03*
X143087500Y-75950000D03*
%TD*%
D13*
%TO.C,J40*%
X215000000Y-70460000D03*
D14*
X215000000Y-73000000D03*
%TD*%
D10*
%TO.C,Q28*%
X178700000Y-119750000D03*
X180600000Y-120700000D03*
X180600000Y-118800000D03*
%TD*%
D23*
%TO.C,R11*%
X152837500Y-132500000D03*
X154662500Y-132500000D03*
%TD*%
D13*
%TO.C,J15*%
X224250000Y-134210000D03*
D14*
X224250000Y-136750000D03*
X224250000Y-139290000D03*
%TD*%
D20*
%TO.C,J4*%
X84238375Y-87373333D03*
D14*
X84238375Y-84833333D03*
X84238375Y-82293333D03*
%TD*%
D34*
%TO.C,TVS2*%
X144250000Y-72000000D03*
X148250000Y-72000000D03*
%TD*%
D17*
%TO.C,Q29*%
X103687500Y-103462500D03*
X102737500Y-105362500D03*
X104637500Y-105362500D03*
%TD*%
%TO.C,Q6*%
X94750000Y-129300000D03*
X93800000Y-131200000D03*
X95700000Y-131200000D03*
%TD*%
%TO.C,Q24*%
X103800000Y-76737500D03*
X102850000Y-78637500D03*
X104750000Y-78637500D03*
%TD*%
D13*
%TO.C,J17*%
X224250000Y-108170000D03*
D14*
X224250000Y-110710000D03*
X224250000Y-113250000D03*
%TD*%
D11*
%TO.C,J32*%
X161920333Y-130243333D03*
D12*
X159380333Y-130243333D03*
%TD*%
D22*
%TO.C,C3*%
X186500000Y-75500000D03*
X184600000Y-75500000D03*
%TD*%
D13*
%TO.C,J80*%
X196525000Y-68021667D03*
D14*
X196525000Y-70561667D03*
X196525000Y-73101667D03*
X196525000Y-75641667D03*
%TD*%
D11*
%TO.C,J9*%
X124730833Y-139250000D03*
D12*
X122190833Y-139250000D03*
X119650833Y-139250000D03*
%TD*%
D20*
%TO.C,J65*%
X111238375Y-101685000D03*
D14*
X111238375Y-99145000D03*
X111238375Y-96605000D03*
X111238375Y-94065000D03*
%TD*%
D35*
%TO.C,U2*%
X189800000Y-66600000D03*
X187500000Y-66600000D03*
D36*
X187500000Y-72900000D03*
D35*
X185200000Y-66600000D03*
%TD*%
D17*
%TO.C,Q34*%
X207300000Y-129000000D03*
X206350000Y-130900000D03*
X208250000Y-130900000D03*
%TD*%
D21*
%TO.C,D1*%
X157500000Y-72000000D03*
X157500000Y-68000000D03*
%TD*%
D37*
%TO.C,D4*%
X139287500Y-79450000D03*
X141162500Y-79450000D03*
%TD*%
D16*
%TO.C,R41*%
X203650000Y-141887500D03*
X203650000Y-143712500D03*
%TD*%
D38*
%TO.C,C7*%
X175500000Y-70500000D03*
D39*
X180500000Y-70500000D03*
%TD*%
D37*
%TO.C,D2*%
X139225000Y-75950000D03*
X141100000Y-75950000D03*
%TD*%
D23*
%TO.C,R37*%
X178825000Y-123600000D03*
X180650000Y-123600000D03*
%TD*%
D10*
%TO.C,Q39*%
X140050000Y-119500000D03*
X141950000Y-120450000D03*
X141950000Y-118550000D03*
%TD*%
D13*
%TO.C,J57*%
X205750000Y-109460000D03*
D14*
X205750000Y-112000000D03*
%TD*%
D11*
%TO.C,J71*%
X151500000Y-112250000D03*
D12*
X148960000Y-112250000D03*
X146420000Y-112250000D03*
X143880000Y-112250000D03*
%TD*%
D10*
%TO.C,Q30*%
X190450000Y-119700000D03*
X192350000Y-120650000D03*
X192350000Y-118750000D03*
%TD*%
D13*
%TO.C,J61*%
X205750000Y-57460000D03*
D14*
X205750000Y-60000000D03*
%TD*%
D16*
%TO.C,R7*%
X91000000Y-129337500D03*
X91000000Y-131162500D03*
%TD*%
D10*
%TO.C,Q37*%
X126950000Y-119600000D03*
X128850000Y-120550000D03*
X128850000Y-118650000D03*
%TD*%
D16*
%TO.C,R47*%
X203500000Y-102587500D03*
X203500000Y-104412500D03*
%TD*%
%TO.C,R42*%
X99900000Y-129350000D03*
X99900000Y-131175000D03*
%TD*%
%TO.C,R45*%
X203500000Y-116087500D03*
X203500000Y-117912500D03*
%TD*%
D17*
%TO.C,Q23*%
X207200000Y-77050000D03*
X206250000Y-78950000D03*
X208150000Y-78950000D03*
%TD*%
D16*
%TO.C,R38*%
X99937500Y-103500000D03*
X99937500Y-105325000D03*
%TD*%
D20*
%TO.C,J67*%
X111238375Y-127768333D03*
D14*
X111238375Y-125228333D03*
X111238375Y-122688333D03*
X111238375Y-120148333D03*
%TD*%
D16*
%TO.C,R25*%
X157000000Y-76387500D03*
X157000000Y-78212500D03*
%TD*%
D20*
%TO.C,J7*%
X84238375Y-126498333D03*
D14*
X84238375Y-123958333D03*
X84238375Y-121418333D03*
%TD*%
D20*
%TO.C,J3*%
X84238375Y-74331667D03*
D14*
X84238375Y-71791667D03*
X84238375Y-69251667D03*
%TD*%
D16*
%TO.C,R18*%
X212750000Y-102587500D03*
X212750000Y-104412500D03*
%TD*%
%TO.C,R21*%
X213000000Y-64250000D03*
X213000000Y-66075000D03*
%TD*%
D17*
%TO.C,Q20*%
X216500000Y-64300000D03*
X215550000Y-66200000D03*
X217450000Y-66200000D03*
%TD*%
D11*
%TO.C,J13*%
X176010167Y-139230000D03*
D12*
X173470167Y-139230000D03*
X170930167Y-139230000D03*
%TD*%
D13*
%TO.C,J39*%
X215000000Y-83460000D03*
D14*
X215000000Y-86000000D03*
%TD*%
D40*
%TO.C,U8*%
X159155000Y-85375000D03*
X157885000Y-85375000D03*
X156615000Y-85375000D03*
X155345000Y-85375000D03*
X155345000Y-90625000D03*
X156615000Y-90625000D03*
X157885000Y-90625000D03*
X159155000Y-90625000D03*
%TD*%
D41*
%TO.C,U1*%
X118750000Y-62070000D03*
X118750000Y-63340000D03*
X118750000Y-64610000D03*
X118750000Y-65880000D03*
X118750000Y-67150000D03*
X118750000Y-68420000D03*
X118750000Y-69690000D03*
X118750000Y-70960000D03*
X118750000Y-72230000D03*
X118750000Y-73500000D03*
X118750000Y-74770000D03*
X118750000Y-76040000D03*
X118750000Y-77310000D03*
X118750000Y-78580000D03*
D42*
X120515000Y-79830000D03*
X121785000Y-79830000D03*
X123055000Y-79830000D03*
X124325000Y-79830000D03*
X125595000Y-79830000D03*
X126865000Y-79830000D03*
X128135000Y-79830000D03*
X129405000Y-79830000D03*
X130675000Y-79830000D03*
X131945000Y-79830000D03*
X133215000Y-79830000D03*
X134485000Y-79830000D03*
D41*
X136250000Y-78580000D03*
X136250000Y-77310000D03*
X136250000Y-76040000D03*
X136250000Y-74770000D03*
X136250000Y-73500000D03*
X136250000Y-72230000D03*
X136250000Y-70960000D03*
X136250000Y-69690000D03*
X136250000Y-68420000D03*
X136250000Y-67150000D03*
X136250000Y-65880000D03*
X136250000Y-64610000D03*
X136250000Y-63340000D03*
X136250000Y-62070000D03*
D43*
X124600000Y-69090000D03*
X124600000Y-70490000D03*
X125300000Y-68390000D03*
X125300000Y-69790000D03*
X125300000Y-71190000D03*
X126000000Y-69090000D03*
D44*
X126000000Y-69790000D03*
D43*
X126000000Y-70490000D03*
X126700000Y-68390000D03*
X126700000Y-69790000D03*
X126700000Y-71190000D03*
X127400000Y-69090000D03*
X127400000Y-70490000D03*
%TD*%
D10*
%TO.C,Q12*%
X178750000Y-128750000D03*
X180650000Y-129700000D03*
X180650000Y-127800000D03*
%TD*%
D17*
%TO.C,Q5*%
X94750000Y-116300000D03*
X93800000Y-118200000D03*
X95700000Y-118200000D03*
%TD*%
D16*
%TO.C,R43*%
X203600000Y-129087500D03*
X203600000Y-130912500D03*
%TD*%
D11*
%TO.C,J29*%
X123460833Y-130250000D03*
D12*
X120920833Y-130250000D03*
%TD*%
D17*
%TO.C,Q14*%
X216500000Y-141750000D03*
X215550000Y-143650000D03*
X217450000Y-143650000D03*
%TD*%
%TO.C,Q19*%
X216500000Y-76800000D03*
X215550000Y-78700000D03*
X217450000Y-78700000D03*
%TD*%
%TO.C,Q35*%
X103950000Y-141700000D03*
X103000000Y-143600000D03*
X104900000Y-143600000D03*
%TD*%
D11*
%TO.C,J53*%
X174740167Y-121230000D03*
D12*
X172200167Y-121230000D03*
%TD*%
D23*
%TO.C,R46*%
X127037500Y-123550000D03*
X128862500Y-123550000D03*
%TD*%
D31*
%TO.C,R27*%
X153325000Y-73250000D03*
X151500000Y-73250000D03*
%TD*%
D45*
%TO.C,J1*%
X187740000Y-59555000D03*
X181960000Y-59555000D03*
D46*
X188100000Y-61000000D03*
X187300000Y-61000000D03*
D47*
X186100000Y-61000000D03*
X185100000Y-61000000D03*
X184600000Y-61000000D03*
X183600000Y-61000000D03*
D46*
X182400000Y-61000000D03*
X181600000Y-61000000D03*
X181600000Y-61000000D03*
X182400000Y-61000000D03*
D47*
X183100000Y-61000000D03*
X184100000Y-61000000D03*
X185600000Y-61000000D03*
X186600000Y-61000000D03*
D46*
X187300000Y-61000000D03*
X188100000Y-61000000D03*
D48*
X189170000Y-60085000D03*
D49*
X189170000Y-55905000D03*
D48*
X180530000Y-60085000D03*
D49*
X180530000Y-55905000D03*
%TD*%
D17*
%TO.C,Q40*%
X207450000Y-89900000D03*
X206500000Y-91800000D03*
X208400000Y-91800000D03*
%TD*%
D20*
%TO.C,J6*%
X84238375Y-113456667D03*
D14*
X84238375Y-110916667D03*
X84238375Y-108376667D03*
%TD*%
D16*
%TO.C,R44*%
X100000000Y-141787500D03*
X100000000Y-143612500D03*
%TD*%
D22*
%TO.C,C10*%
X158200000Y-93000000D03*
X156300000Y-93000000D03*
%TD*%
D23*
%TO.C,R34*%
X165637500Y-123500000D03*
X167462500Y-123500000D03*
%TD*%
D17*
%TO.C,Q18*%
X216550000Y-89850000D03*
X215600000Y-91750000D03*
X217500000Y-91750000D03*
%TD*%
D16*
%TO.C,R17*%
X212750000Y-115837500D03*
X212750000Y-117662500D03*
%TD*%
D17*
%TO.C,Q16*%
X216500000Y-115800000D03*
X215550000Y-117700000D03*
X217450000Y-117700000D03*
%TD*%
D23*
%TO.C,R39*%
X190487500Y-123700000D03*
X192312500Y-123700000D03*
%TD*%
D22*
%TO.C,C1*%
X186400000Y-64000000D03*
X184500000Y-64000000D03*
%TD*%
D16*
%TO.C,R30*%
X100000000Y-63675000D03*
X100000000Y-65500000D03*
%TD*%
D20*
%TO.C,J47*%
X102238375Y-125228333D03*
D14*
X102238375Y-122688333D03*
%TD*%
D23*
%TO.C,R31*%
X152887500Y-123700000D03*
X154712500Y-123700000D03*
%TD*%
D16*
%TO.C,R1*%
X116000000Y-58725000D03*
X116000000Y-60550000D03*
%TD*%
D50*
%TO.C,C5*%
X116000000Y-55100000D03*
X116000000Y-57000000D03*
%TD*%
D30*
%TO.C,R50*%
X152250000Y-106500000D03*
X152250000Y-104675000D03*
%TD*%
D16*
%TO.C,R3*%
X91000000Y-76787500D03*
X91000000Y-78612500D03*
%TD*%
D31*
%TO.C,R22*%
X148825000Y-75950000D03*
X147000000Y-75950000D03*
%TD*%
D10*
%TO.C,Q10*%
X152800000Y-128750000D03*
X154700000Y-129700000D03*
X154700000Y-127800000D03*
%TD*%
D51*
%TO.C,L1*%
X189450000Y-85500000D03*
X179550000Y-85500000D03*
%TD*%
D17*
%TO.C,Q15*%
X216500000Y-129050000D03*
X215550000Y-130950000D03*
X217450000Y-130950000D03*
%TD*%
D11*
%TO.C,J31*%
X149100500Y-130250000D03*
D12*
X146560500Y-130250000D03*
%TD*%
D13*
%TO.C,J78*%
X196615000Y-94065000D03*
D14*
X196615000Y-96605000D03*
X196615000Y-99145000D03*
X196615000Y-101685000D03*
%TD*%
D13*
%TO.C,J36*%
X215000000Y-122730000D03*
D14*
X215000000Y-125270000D03*
%TD*%
D13*
%TO.C,J56*%
X205750000Y-122710000D03*
D14*
X205750000Y-125250000D03*
%TD*%
D11*
%TO.C,J34*%
X187560000Y-130230000D03*
D12*
X185020000Y-130230000D03*
%TD*%
D23*
%TO.C,R12*%
X165837500Y-132500000D03*
X167662500Y-132500000D03*
%TD*%
D17*
%TO.C,Q31*%
X104050000Y-116200000D03*
X103100000Y-118100000D03*
X105000000Y-118100000D03*
%TD*%
D16*
%TO.C,R19*%
X212750000Y-89887500D03*
X212750000Y-91712500D03*
%TD*%
%TO.C,R2*%
X91000000Y-63587500D03*
X91000000Y-65412500D03*
%TD*%
D17*
%TO.C,Q7*%
X94750000Y-141750000D03*
X93800000Y-143650000D03*
X95700000Y-143650000D03*
%TD*%
D20*
%TO.C,J63*%
X111238375Y-75601667D03*
D14*
X111238375Y-73061667D03*
X111238375Y-70521667D03*
X111238375Y-67981667D03*
%TD*%
D23*
%TO.C,R10*%
X140337500Y-132500000D03*
X142162500Y-132500000D03*
%TD*%
D17*
%TO.C,Q1*%
X94800000Y-63500000D03*
X93850000Y-65400000D03*
X95750000Y-65400000D03*
%TD*%
D11*
%TO.C,J14*%
X188830000Y-139250000D03*
D12*
X186290000Y-139250000D03*
X183750000Y-139250000D03*
%TD*%
D20*
%TO.C,J46*%
X102238375Y-112186667D03*
D14*
X102238375Y-109646667D03*
%TD*%
D15*
%TO.C,U3*%
X119333333Y-97075000D03*
X119333333Y-98345000D03*
X119333333Y-99615000D03*
X119333333Y-100885000D03*
X119333333Y-102155000D03*
X119333333Y-103425000D03*
X119333333Y-104695000D03*
X119333333Y-105965000D03*
X124333333Y-105965000D03*
X124333333Y-104695000D03*
X124333333Y-103425000D03*
X124333333Y-102155000D03*
X124333333Y-100885000D03*
X124333333Y-99615000D03*
X124333333Y-98345000D03*
X124333333Y-97075000D03*
%TD*%
D13*
%TO.C,J21*%
X224250000Y-56250000D03*
D14*
X224250000Y-58790000D03*
X224250000Y-61330000D03*
%TD*%
D10*
%TO.C,Q11*%
X165750000Y-128750000D03*
X167650000Y-129700000D03*
X167650000Y-127800000D03*
%TD*%
D13*
%TO.C,J55*%
X205730000Y-135730000D03*
D14*
X205730000Y-138270000D03*
%TD*%
D10*
%TO.C,Q9*%
X140300000Y-128750000D03*
X142200000Y-129700000D03*
X142200000Y-127800000D03*
%TD*%
D20*
%TO.C,J28*%
X93270000Y-138270000D03*
D14*
X93270000Y-135730000D03*
%TD*%
D15*
%TO.C,U5*%
X140000000Y-97055000D03*
X140000000Y-98325000D03*
X140000000Y-99595000D03*
X140000000Y-100865000D03*
X140000000Y-102135000D03*
X140000000Y-103405000D03*
X140000000Y-104675000D03*
X140000000Y-105945000D03*
X145000000Y-105945000D03*
X145000000Y-104675000D03*
X145000000Y-103405000D03*
X145000000Y-102135000D03*
X145000000Y-100865000D03*
X145000000Y-99595000D03*
X145000000Y-98325000D03*
X145000000Y-97055000D03*
%TD*%
D52*
%TO.C,D3*%
X155062500Y-97250000D03*
X151762500Y-97250000D03*
%TD*%
D20*
%TO.C,J27*%
X93238375Y-125228333D03*
D14*
X93238375Y-122688333D03*
%TD*%
D17*
%TO.C,Q36*%
X207300000Y-116050000D03*
X206350000Y-117950000D03*
X208250000Y-117950000D03*
%TD*%
D53*
%TO.C,F1*%
X148500000Y-64250000D03*
X148500000Y-68925000D03*
%TD*%
D11*
%TO.C,J49*%
X123460833Y-121250000D03*
D12*
X120920833Y-121250000D03*
%TD*%
D20*
%TO.C,J64*%
X111238375Y-88643333D03*
D14*
X111238375Y-86103333D03*
X111238375Y-83563333D03*
X111238375Y-81023333D03*
%TD*%
D13*
%TO.C,J19*%
X224250000Y-82170000D03*
D14*
X224250000Y-84710000D03*
X224250000Y-87250000D03*
%TD*%
D17*
%TO.C,Q26*%
X207250000Y-64050000D03*
X206300000Y-65950000D03*
X208200000Y-65950000D03*
%TD*%
%TO.C,Q3*%
X94700000Y-89750000D03*
X93750000Y-91650000D03*
X95650000Y-91650000D03*
%TD*%
%TO.C,Q4*%
X94750000Y-103550000D03*
X93800000Y-105450000D03*
X95700000Y-105450000D03*
%TD*%
D11*
%TO.C,J73*%
X177310000Y-112230000D03*
D12*
X174770000Y-112230000D03*
X172230000Y-112230000D03*
X169690000Y-112230000D03*
%TD*%
D20*
%TO.C,J42*%
X102238375Y-60020000D03*
D14*
X102238375Y-57480000D03*
%TD*%
D31*
%TO.C,R28*%
X141162500Y-73250000D03*
X139337500Y-73250000D03*
%TD*%
D16*
%TO.C,R35*%
X203500000Y-64087500D03*
X203500000Y-65912500D03*
%TD*%
D10*
%TO.C,Q22*%
X152750000Y-119700000D03*
X154650000Y-120650000D03*
X154650000Y-118750000D03*
%TD*%
D23*
%TO.C,R48*%
X140200000Y-123700000D03*
X142025000Y-123700000D03*
%TD*%
D20*
%TO.C,J25*%
X93238375Y-99145000D03*
D14*
X93238375Y-96605000D03*
%TD*%
D15*
%TO.C,U10*%
X173833334Y-97230000D03*
X173833334Y-98500000D03*
X173833334Y-99770000D03*
X173833334Y-101040000D03*
X173833334Y-102310000D03*
X173833334Y-103580000D03*
X173833334Y-104850000D03*
X173833334Y-106120000D03*
X178833334Y-106120000D03*
X178833334Y-104850000D03*
X178833334Y-103580000D03*
X178833334Y-102310000D03*
X178833334Y-101040000D03*
X178833334Y-99770000D03*
X178833334Y-98500000D03*
X178833334Y-97230000D03*
%TD*%
D20*
%TO.C,J26*%
X93238375Y-112186667D03*
D14*
X93238375Y-109646667D03*
%TD*%
D20*
%TO.C,J23*%
X93238375Y-73061667D03*
D14*
X93238375Y-70521667D03*
%TD*%
D20*
%TO.C,J43*%
X102238375Y-73061667D03*
D14*
X102238375Y-70521667D03*
%TD*%
D13*
%TO.C,J60*%
X205750000Y-70500000D03*
D14*
X205750000Y-73040000D03*
%TD*%
D13*
%TO.C,J20*%
X224250000Y-69420000D03*
D14*
X224250000Y-71960000D03*
X224250000Y-74500000D03*
%TD*%
D11*
%TO.C,J72*%
X164370000Y-112250000D03*
D12*
X161830000Y-112250000D03*
X159290000Y-112250000D03*
X156750000Y-112250000D03*
%TD*%
D54*
%TO.C,C8*%
X175250000Y-86250000D03*
X169850000Y-86250000D03*
%TD*%
D18*
%TO.C,SW1*%
X120315600Y-85940000D03*
X124684400Y-85940000D03*
%TD*%
D11*
%TO.C,J30*%
X136280666Y-130230000D03*
D12*
X133740666Y-130230000D03*
%TD*%
D15*
%TO.C,U11*%
X184166667Y-97250000D03*
X184166667Y-98520000D03*
X184166667Y-99790000D03*
X184166667Y-101060000D03*
X184166667Y-102330000D03*
X184166667Y-103600000D03*
X184166667Y-104870000D03*
X184166667Y-106140000D03*
X189166667Y-106140000D03*
X189166667Y-104870000D03*
X189166667Y-103600000D03*
X189166667Y-102330000D03*
X189166667Y-101060000D03*
X189166667Y-99790000D03*
X189166667Y-98520000D03*
X189166667Y-97250000D03*
%TD*%
D16*
%TO.C,R16*%
X212750000Y-129087500D03*
X212750000Y-130912500D03*
%TD*%
D11*
%TO.C,J10*%
X137550666Y-139230000D03*
D12*
X135010666Y-139230000D03*
X132470666Y-139230000D03*
%TD*%
D16*
%TO.C,R33*%
X99850000Y-76775000D03*
X99850000Y-78600000D03*
%TD*%
D20*
%TO.C,J2*%
X84238375Y-61290000D03*
D14*
X84238375Y-58750000D03*
X84238375Y-56210000D03*
%TD*%
D20*
%TO.C,J24*%
X93238375Y-86103333D03*
D14*
X93238375Y-83563333D03*
%TD*%
D11*
%TO.C,J70*%
X138820666Y-112230000D03*
D12*
X136280666Y-112230000D03*
X133740666Y-112230000D03*
X131200666Y-112230000D03*
%TD*%
D23*
%TO.C,R9*%
X127087500Y-132500000D03*
X128912500Y-132500000D03*
%TD*%
M02*
