%TF.GenerationSoftware,KiCad,Pcbnew,9.0.0*%
%TF.CreationDate,2025-03-15T02:30:36-06:00*%
%TF.ProjectId,ParallelValveController,50617261-6c6c-4656-9c56-616c7665436f,rev?*%
%TF.SameCoordinates,Original*%
%TF.FileFunction,Soldermask,Bot*%
%TF.FilePolarity,Negative*%
%FSLAX46Y46*%
G04 Gerber Fmt 4.6, Leading zero omitted, Abs format (unit mm)*
G04 Created by KiCad (PCBNEW 9.0.0) date 2025-03-15 02:30:36*
%MOMM*%
%LPD*%
G01*
G04 APERTURE LIST*
G04 Aperture macros list*
%AMRoundRect*
0 Rectangle with rounded corners*
0 $1 Rounding radius*
0 $2 $3 $4 $5 $6 $7 $8 $9 X,Y pos of 4 corners*
0 Add a 4 corners polygon primitive as box body*
4,1,4,$2,$3,$4,$5,$6,$7,$8,$9,$2,$3,0*
0 Add four circle primitives for the rounded corners*
1,1,$1+$1,$2,$3*
1,1,$1+$1,$4,$5*
1,1,$1+$1,$6,$7*
1,1,$1+$1,$8,$9*
0 Add four rect primitives between the rounded corners*
20,1,$1+$1,$2,$3,$4,$5,0*
20,1,$1+$1,$4,$5,$6,$7,0*
20,1,$1+$1,$6,$7,$8,$9,0*
20,1,$1+$1,$8,$9,$2,$3,0*%
G04 Aperture macros list end*
%ADD10RoundRect,0.250000X0.620000X0.845000X-0.620000X0.845000X-0.620000X-0.845000X0.620000X-0.845000X0*%
%ADD11O,1.740000X2.190000*%
%ADD12RoundRect,0.250000X-0.845000X0.620000X-0.845000X-0.620000X0.845000X-0.620000X0.845000X0.620000X0*%
%ADD13O,2.190000X1.740000*%
%ADD14C,9.000000*%
%ADD15RoundRect,0.250000X0.845000X-0.620000X0.845000X0.620000X-0.845000X0.620000X-0.845000X-0.620000X0*%
%ADD16RoundRect,0.250000X-0.620000X-0.845000X0.620000X-0.845000X0.620000X0.845000X-0.620000X0.845000X0*%
%ADD17R,2.000000X2.000000*%
%ADD18C,2.000000*%
%ADD19C,0.650000*%
%ADD20O,1.000000X2.100000*%
%ADD21O,1.000000X1.600000*%
G04 APERTURE END LIST*
D10*
%TO.C,J51*%
X149100500Y-121250000D03*
D11*
X146560500Y-121250000D03*
%TD*%
D12*
%TO.C,J76*%
X196750000Y-120108333D03*
D13*
X196750000Y-122648333D03*
X196750000Y-125188333D03*
X196750000Y-127728333D03*
%TD*%
D10*
%TO.C,J69*%
X126000833Y-112250000D03*
D11*
X123460833Y-112250000D03*
X120920833Y-112250000D03*
X118380833Y-112250000D03*
%TD*%
D12*
%TO.C,J41*%
X215000000Y-57460000D03*
D13*
X215000000Y-60000000D03*
%TD*%
D10*
%TO.C,J50*%
X136280666Y-121230000D03*
D11*
X133740666Y-121230000D03*
%TD*%
D10*
%TO.C,J11*%
X150370500Y-139250000D03*
D11*
X147830500Y-139250000D03*
X145290500Y-139250000D03*
%TD*%
D10*
%TO.C,J33*%
X174740167Y-130230000D03*
D11*
X172200167Y-130230000D03*
%TD*%
D10*
%TO.C,J12*%
X163190333Y-139250000D03*
D11*
X160650333Y-139250000D03*
X158110333Y-139250000D03*
%TD*%
D14*
%TO.C,J83*%
X157750000Y-58500000D03*
X168750000Y-58500000D03*
%TD*%
D15*
%TO.C,J22*%
X93238375Y-60020000D03*
D13*
X93238375Y-57480000D03*
%TD*%
D12*
%TO.C,J79*%
X196570000Y-81043333D03*
D13*
X196570000Y-83583333D03*
X196570000Y-86123333D03*
X196570000Y-88663333D03*
%TD*%
D12*
%TO.C,J37*%
X215000000Y-109460000D03*
D13*
X215000000Y-112000000D03*
%TD*%
D15*
%TO.C,J62*%
X111238375Y-62560000D03*
D13*
X111238375Y-60020000D03*
X111238375Y-57480000D03*
X111238375Y-54940000D03*
%TD*%
D12*
%TO.C,J59*%
X205750000Y-83500000D03*
D13*
X205750000Y-86040000D03*
%TD*%
D15*
%TO.C,J68*%
X111270000Y-140810000D03*
D13*
X111270000Y-138270000D03*
X111270000Y-135730000D03*
X111270000Y-133190000D03*
%TD*%
D12*
%TO.C,J75*%
X196660000Y-133130000D03*
D13*
X196660000Y-135670000D03*
X196660000Y-138210000D03*
X196660000Y-140750000D03*
%TD*%
D15*
%TO.C,J48*%
X102270000Y-138270000D03*
D13*
X102270000Y-135730000D03*
%TD*%
D12*
%TO.C,J18*%
X224230000Y-95170000D03*
D13*
X224230000Y-97710000D03*
X224230000Y-100250000D03*
%TD*%
D15*
%TO.C,J45*%
X102238375Y-99145000D03*
D13*
X102238375Y-96605000D03*
%TD*%
D16*
%TO.C,J82*%
X140960000Y-59020000D03*
D11*
X143500000Y-59020000D03*
X146040000Y-59020000D03*
%TD*%
D15*
%TO.C,J44*%
X102238375Y-86103333D03*
D13*
X102238375Y-83563333D03*
%TD*%
D12*
%TO.C,J58*%
X205750000Y-96460000D03*
D13*
X205750000Y-99000000D03*
%TD*%
D15*
%TO.C,J8*%
X84270000Y-139540000D03*
D13*
X84270000Y-137000000D03*
X84270000Y-134460000D03*
%TD*%
D15*
%TO.C,J5*%
X84238375Y-100415000D03*
D13*
X84238375Y-97875000D03*
X84238375Y-95335000D03*
%TD*%
D15*
%TO.C,J66*%
X111238375Y-114726667D03*
D13*
X111238375Y-112186667D03*
X111238375Y-109646667D03*
X111238375Y-107106667D03*
%TD*%
D12*
%TO.C,J77*%
X196705000Y-107086667D03*
D13*
X196705000Y-109626667D03*
X196705000Y-112166667D03*
X196705000Y-114706667D03*
%TD*%
D12*
%TO.C,J16*%
X224250000Y-121420000D03*
D13*
X224250000Y-123960000D03*
X224250000Y-126500000D03*
%TD*%
D12*
%TO.C,J81*%
X196480000Y-55000000D03*
D13*
X196480000Y-57540000D03*
X196480000Y-60080000D03*
X196480000Y-62620000D03*
%TD*%
D10*
%TO.C,J74*%
X190060000Y-112230000D03*
D11*
X187520000Y-112230000D03*
X184980000Y-112230000D03*
X182440000Y-112230000D03*
%TD*%
D12*
%TO.C,J35*%
X215000000Y-135730000D03*
D13*
X215000000Y-138270000D03*
%TD*%
D10*
%TO.C,J54*%
X187560000Y-121250000D03*
D11*
X185020000Y-121250000D03*
%TD*%
D12*
%TO.C,J38*%
X215000000Y-96460000D03*
D13*
X215000000Y-99000000D03*
%TD*%
D10*
%TO.C,J52*%
X161920333Y-121236667D03*
D11*
X159380333Y-121236667D03*
%TD*%
D12*
%TO.C,J40*%
X215000000Y-70460000D03*
D13*
X215000000Y-73000000D03*
%TD*%
D12*
%TO.C,J15*%
X224250000Y-134210000D03*
D13*
X224250000Y-136750000D03*
X224250000Y-139290000D03*
%TD*%
D15*
%TO.C,J4*%
X84238375Y-87373333D03*
D13*
X84238375Y-84833333D03*
X84238375Y-82293333D03*
%TD*%
D12*
%TO.C,J17*%
X224250000Y-108170000D03*
D13*
X224250000Y-110710000D03*
X224250000Y-113250000D03*
%TD*%
D10*
%TO.C,J32*%
X161920333Y-130243333D03*
D11*
X159380333Y-130243333D03*
%TD*%
D12*
%TO.C,J80*%
X196525000Y-68021667D03*
D13*
X196525000Y-70561667D03*
X196525000Y-73101667D03*
X196525000Y-75641667D03*
%TD*%
D10*
%TO.C,J9*%
X124730833Y-139250000D03*
D11*
X122190833Y-139250000D03*
X119650833Y-139250000D03*
%TD*%
D15*
%TO.C,J65*%
X111238375Y-101685000D03*
D13*
X111238375Y-99145000D03*
X111238375Y-96605000D03*
X111238375Y-94065000D03*
%TD*%
D17*
%TO.C,C7*%
X175500000Y-70500000D03*
D18*
X180500000Y-70500000D03*
%TD*%
D12*
%TO.C,J57*%
X205750000Y-109460000D03*
D13*
X205750000Y-112000000D03*
%TD*%
D10*
%TO.C,J71*%
X151500000Y-112250000D03*
D11*
X148960000Y-112250000D03*
X146420000Y-112250000D03*
X143880000Y-112250000D03*
%TD*%
D12*
%TO.C,J61*%
X205750000Y-57460000D03*
D13*
X205750000Y-60000000D03*
%TD*%
D15*
%TO.C,J67*%
X111238375Y-127768333D03*
D13*
X111238375Y-125228333D03*
X111238375Y-122688333D03*
X111238375Y-120148333D03*
%TD*%
D15*
%TO.C,J7*%
X84238375Y-126498333D03*
D13*
X84238375Y-123958333D03*
X84238375Y-121418333D03*
%TD*%
D15*
%TO.C,J3*%
X84238375Y-74331667D03*
D13*
X84238375Y-71791667D03*
X84238375Y-69251667D03*
%TD*%
D10*
%TO.C,J13*%
X176010167Y-139230000D03*
D11*
X173470167Y-139230000D03*
X170930167Y-139230000D03*
%TD*%
D12*
%TO.C,J39*%
X215000000Y-83460000D03*
D13*
X215000000Y-86000000D03*
%TD*%
D10*
%TO.C,J29*%
X123460833Y-130250000D03*
D11*
X120920833Y-130250000D03*
%TD*%
D10*
%TO.C,J53*%
X174740167Y-121230000D03*
D11*
X172200167Y-121230000D03*
%TD*%
D19*
%TO.C,J1*%
X187740000Y-59555000D03*
X181960000Y-59555000D03*
D20*
X189170000Y-60085000D03*
D21*
X189170000Y-55905000D03*
D20*
X180530000Y-60085000D03*
D21*
X180530000Y-55905000D03*
%TD*%
D15*
%TO.C,J6*%
X84238375Y-113456667D03*
D13*
X84238375Y-110916667D03*
X84238375Y-108376667D03*
%TD*%
D15*
%TO.C,J47*%
X102238375Y-125228333D03*
D13*
X102238375Y-122688333D03*
%TD*%
D10*
%TO.C,J31*%
X149100500Y-130250000D03*
D11*
X146560500Y-130250000D03*
%TD*%
D12*
%TO.C,J78*%
X196615000Y-94065000D03*
D13*
X196615000Y-96605000D03*
X196615000Y-99145000D03*
X196615000Y-101685000D03*
%TD*%
D12*
%TO.C,J36*%
X215000000Y-122730000D03*
D13*
X215000000Y-125270000D03*
%TD*%
D12*
%TO.C,J56*%
X205750000Y-122710000D03*
D13*
X205750000Y-125250000D03*
%TD*%
D10*
%TO.C,J34*%
X187560000Y-130230000D03*
D11*
X185020000Y-130230000D03*
%TD*%
D15*
%TO.C,J63*%
X111238375Y-75601667D03*
D13*
X111238375Y-73061667D03*
X111238375Y-70521667D03*
X111238375Y-67981667D03*
%TD*%
D10*
%TO.C,J14*%
X188830000Y-139250000D03*
D11*
X186290000Y-139250000D03*
X183750000Y-139250000D03*
%TD*%
D15*
%TO.C,J46*%
X102238375Y-112186667D03*
D13*
X102238375Y-109646667D03*
%TD*%
D12*
%TO.C,J21*%
X224250000Y-56250000D03*
D13*
X224250000Y-58790000D03*
X224250000Y-61330000D03*
%TD*%
D12*
%TO.C,J55*%
X205730000Y-135730000D03*
D13*
X205730000Y-138270000D03*
%TD*%
D15*
%TO.C,J28*%
X93270000Y-138270000D03*
D13*
X93270000Y-135730000D03*
%TD*%
D15*
%TO.C,J27*%
X93238375Y-125228333D03*
D13*
X93238375Y-122688333D03*
%TD*%
D10*
%TO.C,J49*%
X123460833Y-121250000D03*
D11*
X120920833Y-121250000D03*
%TD*%
D15*
%TO.C,J64*%
X111238375Y-88643333D03*
D13*
X111238375Y-86103333D03*
X111238375Y-83563333D03*
X111238375Y-81023333D03*
%TD*%
D12*
%TO.C,J19*%
X224250000Y-82170000D03*
D13*
X224250000Y-84710000D03*
X224250000Y-87250000D03*
%TD*%
D10*
%TO.C,J73*%
X177310000Y-112230000D03*
D11*
X174770000Y-112230000D03*
X172230000Y-112230000D03*
X169690000Y-112230000D03*
%TD*%
D15*
%TO.C,J42*%
X102238375Y-60020000D03*
D13*
X102238375Y-57480000D03*
%TD*%
D15*
%TO.C,J25*%
X93238375Y-99145000D03*
D13*
X93238375Y-96605000D03*
%TD*%
D15*
%TO.C,J26*%
X93238375Y-112186667D03*
D13*
X93238375Y-109646667D03*
%TD*%
D15*
%TO.C,J23*%
X93238375Y-73061667D03*
D13*
X93238375Y-70521667D03*
%TD*%
D15*
%TO.C,J43*%
X102238375Y-73061667D03*
D13*
X102238375Y-70521667D03*
%TD*%
D12*
%TO.C,J60*%
X205750000Y-70500000D03*
D13*
X205750000Y-73040000D03*
%TD*%
D12*
%TO.C,J20*%
X224250000Y-69420000D03*
D13*
X224250000Y-71960000D03*
X224250000Y-74500000D03*
%TD*%
D10*
%TO.C,J72*%
X164370000Y-112250000D03*
D11*
X161830000Y-112250000D03*
X159290000Y-112250000D03*
X156750000Y-112250000D03*
%TD*%
D10*
%TO.C,J30*%
X136280666Y-130230000D03*
D11*
X133740666Y-130230000D03*
%TD*%
D10*
%TO.C,J10*%
X137550666Y-139230000D03*
D11*
X135010666Y-139230000D03*
X132470666Y-139230000D03*
%TD*%
D15*
%TO.C,J2*%
X84238375Y-61290000D03*
D13*
X84238375Y-58750000D03*
X84238375Y-56210000D03*
%TD*%
D15*
%TO.C,J24*%
X93238375Y-86103333D03*
D13*
X93238375Y-83563333D03*
%TD*%
D10*
%TO.C,J70*%
X138820666Y-112230000D03*
D11*
X136280666Y-112230000D03*
X133740666Y-112230000D03*
X131200666Y-112230000D03*
%TD*%
M02*
